<svg width="339" height="311" viewBox="0 0 339 311" fill="none" xmlns="http://www.w3.org/2000/svg">
<path fill-rule="evenodd" clip-rule="evenodd" d="M187.579 0.5C275.249 0.5 293.708 121.999 294.066 122.999C294.436 124.029 294.784 125.088 295.121 126.117C295.804 128.207 296.684 130.22 297.368 132.296C297.787 133.562 298.555 134.611 299.07 135.807C300.07 138.092 301.296 140.273 302.728 142.316C303.319 143.125 303.783 144.018 304.105 144.967C304.331 145.693 305.081 145.887 305.405 146.527C305.928 147.564 306.626 148.512 307.23 149.508C307.368 149.858 307.684 150.107 308.057 150.159L307.939 151.148C308.158 151.504 308.232 151.022 308.461 151.107C308.748 151.493 309.156 151.836 309.198 152.423C309.236 152.975 309.881 153.027 310.101 153.508C310.585 154.554 311.929 155.087 311.909 156.458C312.876 157.065 313.351 158.108 314.081 158.925C314.456 159.302 314.684 159.797 314.728 160.324L314.734 160.445C314.729 160.969 315.739 160.851 315.467 161.565C317.014 162.726 317.416 164.623 318.233 166.194C319.543 168.715 321.052 171.151 321.942 173.912C322.387 175.293 323.252 176.6 323.732 177.998C324.812 181.142 326.109 184.216 326.811 187.49C327.101 188.842 327.692 190.131 327.969 191.487L328.289 193.054C328.765 195.406 329.216 197.764 329.515 200.148C329.669 200.685 329.668 201.255 329.514 201.792C329.256 202.404 329.942 202.797 329.997 203.411C330.066 204.139 329.775 204.829 329.984 205.602C330.1 206.028 329.984 206.711 330.117 207.206C330.548 208.813 330.002 210.47 330.47 212.066C330.544 212.683 330.479 213.309 330.28 213.898C329.956 215.863 330.55 217.869 329.958 219.788C329.681 220.734 329.628 221.731 329.802 222.699L329.875 223.073C329.928 223.349 329.963 223.619 329.827 223.805C329.288 224.542 329.427 225.411 329.319 226.217L329.298 226.35C329.143 227.253 329.304 228.199 329.031 229.118C328.659 230.018 328.45 230.978 328.414 231.951C328.552 233.601 327.996 235.081 327.655 236.613C327.486 237.378 327.626 238.289 326.784 238.858C326.355 239.148 327.367 239.71 326.754 240.134L326.681 240.178C326.231 240.432 326.251 240.842 326.378 241.333C326.494 241.782 325.71 242.092 325.935 242.551C326.159 243.01 326.26 243.678 325.998 243.763C325.343 243.978 326.009 244.689 325.459 244.824C325.405 244.854 325.368 244.906 325.358 244.967C325.171 246.691 324.061 248.106 323.786 249.828C323.579 250.857 323.177 251.837 322.605 252.717C322.131 253.567 321.729 254.454 321.401 255.37C320.786 256.91 319.732 258.197 319.139 259.729C318.978 260.144 317.903 260.005 318.449 260.857C317.822 261.078 318.013 261.727 317.761 262.133C317.483 262.439 317.16 262.701 316.802 262.909C316.571 263.821 316.126 264.667 315.507 265.376C314.424 266.96 313.242 268.474 311.967 269.909L310.915 271.087C309.508 272.659 308.056 274.196 306.202 275.28C305.725 275.558 305.942 276.086 305.549 276.372C303.276 278.05 301.182 279.954 298.596 281.226C297.514 281.759 296.586 282.705 295.479 283.259C293.383 284.312 291.436 285.622 289.193 286.442L288.794 286.582C287.366 287.057 285.959 287.777 284.509 288.3C281.531 289.47 278.422 290.278 275.25 290.706L273.293 290.923C271.553 291.115 269.812 291.292 268.055 291.341C267.223 291.363 266.426 291.099 265.664 291.194C264.923 291.288 264.17 291.228 263.453 291.017C262.887 290.858 262.408 291.345 261.798 291.083C261.33 290.79 260.75 290.747 260.246 290.961L260.146 291.007C259.857 291.174 259.287 290.865 258.847 290.765C258.204 290.676 257.573 290.519 256.964 290.299C256.491 290.081 255.888 290.783 255.559 290.036C254.961 290.5 214.344 280.848 177.033 300.448C173.995 302.461 170.439 303.345 167.193 304.909C165.683 305.637 163.987 305.97 162.362 306.467L162.015 306.577C159.147 307.504 156.206 308.136 153.269 308.797C150.571 309.381 147.837 309.788 145.085 310.013C143.107 310.192 141.119 310.275 139.146 310.491C138.345 310.578 137.561 310.013 136.778 310.498C135.018 310.019 133.171 310.601 131.416 310.06C130.249 310.405 129.152 309.976 128.08 309.66C127.261 309.417 126.489 309.921 125.662 309.564C124.909 309.171 124.066 308.984 123.217 309.021C121.808 309.237 120.582 308.72 119.299 308.447C116.317 307.812 113.345 307.126 110.385 306.388C109.415 306.146 108.326 306.238 107.496 305.497C106.767 304.846 105.617 305.254 104.901 304.486C104.64 304.206 104.306 304.748 103.913 304.537C103.145 304.124 102.158 304.397 101.441 303.653C100.909 303.103 99.9065 303.475 99.3185 302.81L99.241 302.713C98.8935 302.231 97.9775 303.367 97.7065 302.293C96.6115 302.209 95.704 301.612 94.729 301.203C93.9215 300.866 92.968 301.056 92.239 300.353C91.618 299.754 90.4445 300.195 89.9065 299.297C88.59 299.286 87.6195 298.301 86.365 298.042C85.413 297.792 84.4985 297.416 83.6465 296.923C82.2955 296.228 80.924 295.574 79.542 294.953C79.0465 294.723 78.564 294.465 78.0965 294.181C77.8345 294.028 77.771 293.688 77.3965 293.606C75.027 293.081 73.0345 291.7 71.0105 290.492C69.856 289.896 68.752 289.208 67.708 288.436L67.362 288.176C67.0565 287.913 66.422 287.783 66.1535 287.418C65.4045 286.401 64.2845 285.904 63.2685 285.293L63.1005 285.19C62.528 284.853 62.008 284.434 61.556 283.948C61.4705 283.855 61.436 283.654 61.345 283.631C59.659 283.215 58.6525 281.822 57.3635 280.849C56.2545 280.012 55.285 278.992 54.193 278.139L53.777 277.828C51.222 276.001 23.2608 245.233 20.0924 239.923L19.1857 238.404C18.2803 236.881 17.3853 235.348 16.5613 233.784L15.8596 232.453C15.1589 231.119 14.4693 229.775 13.8596 228.408L13.0439 226.583C11.4164 222.932 9.82384 219.262 8.46649 215.492C7.25614 212.128 6.25409 208.709 5.24249 205.288C4.59454 203.091 4.04704 200.884 3.58449 198.645C2.84554 195.068 2.18654 191.476 1.60764 187.87C1.06769 184.474 1.26739 181.029 0.546342 177.672C1.01874 175.61 0.150192 173.518 0.689492 171.459C0.289442 170.442 0.641242 169.387 0.678842 168.385C0.717392 167.35 0.485292 166.266 0.898492 165.217C1.08779 164.741 0.650192 164.169 0.887292 163.587C1.14754 163.103 1.17759 162.528 0.969192 162.02C1.67174 161.697 0.834342 161.2 1.12609 160.74C1.44064 160.24 1.57959 159.651 1.52099 159.064C1.31639 157.75 2.07314 156.537 1.94029 155.35C1.80174 154.137 2.40114 153.108 2.39929 152.02L2.39154 151.815C2.28809 150.387 3.30894 149.311 3.34299 147.96C3.34619 147.842 3.62564 147.733 3.77879 147.616C3.72969 147.312 3.39359 147.381 3.15519 147.145C3.53579 146.814 3.86879 146.433 4.14474 146.012C4.35359 145.434 4.50194 144.836 4.58734 144.227L3.61964 142.979C3.97674 142.265 3.85224 141.615 4.32904 141.055C4.53654 140.81 4.42084 140.063 4.44644 139.546C4.48024 138.868 5.35169 138.465 5.14144 137.929C4.97929 137.313 5.03184 136.66 5.29044 136.078C6.53719 130.582 7.80714 125.091 9.10029 119.605C9.23629 119.017 9.11794 118.277 9.84159 117.932C9.05084 117.116 10.2926 116.831 10.3119 116.184C10.4127 115.579 10.6458 115.004 10.9946 114.499C11.4885 113.555 11.5339 112.382 11.8152 111.318C11.8893 110.566 12.1743 109.85 12.6375 109.251C13.1192 108.753 13.0498 107.884 13.4125 107.184C13.9249 106.338 14.322 105.427 14.5933 104.475C14.6751 103.792 14.9475 103.145 15.3796 102.609C15.7633 102.185 15.4482 101.308 16.1939 100.989C16.403 99.76 17.137 98.7725 17.6804 97.6955L17.7798 97.4925C19.1146 94.721 20.6148 92.032 22.2723 89.4395C23.6494 87.258 24.9893 85.0535 26.3874 82.8855C26.8423 82.1855 27.3259 81.4885 27.8261 80.824C29.5636 78.3805 31.4351 76.035 33.432 73.798C35.2585 71.8625 36.9995 69.84 38.917 67.979C39.9365 66.989 40.7705 65.7735 41.7605 64.722C44.093 62.2395 46.488 59.8245 49.007 57.5325C51.1345 55.431 53.461 53.54 55.954 51.8865C56.632 51.474 57.189 50.87 57.8435 50.4135C58.6375 49.976 59.3995 49.483 60.124 48.9375C60.9665 48.145 62.0005 47.641 62.8515 46.907C63.512 46.3375 64.569 46.6625 65.042 45.6375C65.3865 44.892 66.6765 45.1655 67.1105 44.2945C68.3015 44.2545 68.8575 43.1015 69.939 42.7225L70.083 42.678C71.2225 42.367 72.195 41.4475 73.24 40.7955C74.2485 40.0815 75.303 39.4355 76.398 38.8625C78.453 37.937 80.2265 36.527 82.2355 35.571C84.1505 34.661 85.874 33.3285 87.963 32.8215C88.4565 32.702 88.3645 32.2665 88.704 32.081C89.0575 31.8865 89.4445 32.0155 89.7635 31.7915C91.0845 30.9295 99.9095 0.5 187.579 0.5Z" fill="#BAA5FF"/>
<path fill-rule="evenodd" clip-rule="evenodd" d="M88.687 65.7245C85.7545 67.379 81.4605 65.2685 80.979 61.936C82.8495 61.836 84.8485 61.69 86.3275 60.5405C87.806 59.3905 88.3235 56.8445 86.8415 55.699C74.7745 54.217 63.0355 50.1175 52.67 43.764C59.748 41.6315 65.838 37.133 72.4865 33.9005C79.1345 30.668 87.1755 28.7565 93.806 32.025C100.316 35.2345 107.811 31.1405 114.605 28.585C126.419 24.1415 139.966 24.514 151.517 29.6C159.945 33.311 174.226 27.288 183.331 25.9065C198.202 23.65 212.72 34.073 227.653 32.268C226.051 33.3275 224.449 34.3865 222.847 35.446C224.425 35.302 226.011 35.2435 227.595 35.2715C215.202 41.202 202.809 47.132 190.416 53.0625C193.556 54.3325 196.695 55.6025 199.835 56.8725C199.097 59.2385 196.451 60.8365 194.013 60.3885C195.975 61.9495 197.936 63.5105 199.898 65.0715C197.804 66.5585 195.154 67.242 192.602 66.9525C195.32 68.707 197.563 71.1895 199.034 74.0705C205.508 71.9135 212.599 71.648 219.216 73.3145C213.238 74.0985 207.259 74.8825 201.281 75.666C202.184 78.124 203.086 80.5825 203.989 83.0405C211.799 81.253 220.1 81.6595 227.698 84.201C220.163 84.393 212.629 84.5845 205.094 84.7765C204.918 94.7725 199.942 104.966 191.204 109.824C182.465 114.682 165.004 119.001 159.221 104.857C154.793 107.763 155.106 114.749 158.263 119.001C161.42 123.254 166.436 125.608 170.972 128.342C186.04 137.423 197.404 152.46 202.027 169.435C206.65 186.409 204.48 205.134 196.097 220.601C207.399 222.358 217.9 228.79 224.602 238.058C239.032 231.344 247.025 216.022 258.079 204.571C270.653 191.544 288.011 183.241 306.044 181.626C316.714 180.67 328.882 182.727 335.105 191.446C343.195 202.779 335.736 220.399 322.824 225.609C312.588 229.739 301.043 227.662 290.033 228.442C267.894 230.011 248.457 243.066 230.201 255.69C229.456 259.777 230.951 264.201 234.021 267C240.551 260.25 248.788 255.165 257.749 252.352C261.061 251.312 266.025 251.583 266.393 255.035C266.533 256.342 265.845 257.581 265.15 258.696C259.176 268.273 250.752 276.308 240.904 281.823C235.706 284.734 229.897 286.991 223.948 286.658C217.999 286.325 211.942 282.891 209.921 277.286C208.985 274.689 208.883 271.682 207.11 269.566C204.11 265.986 198.348 267.058 194.143 269.091C189.938 271.125 185.456 273.89 180.944 272.684C169.664 269.667 157.924 268.373 146.258 268.861C131.401 269.483 116.262 272.942 101.868 269.211C97.0595 267.964 91.6785 265.998 87.4185 268.554C79.0235 273.59 84.686 289.711 76.0735 294.366C73.0225 296.014 69.284 295.407 65.9185 294.571C51.0455 290.88 37.095 283.528 25.6413 273.348C24.5374 272.367 23.4002 271.265 23.0908 269.82C22.1626 265.489 28.5564 263.687 32.913 264.489C40.3135 265.851 47.3915 268.936 53.4275 273.43C55.543 275.005 58.7625 273.167 59.6585 270.686C60.555 268.206 59.9385 265.474 59.5885 262.859C57.379 246.345 67.739 228.983 83.322 223.086C73.8875 209.318 70.3 191.678 73.6075 175.319C76.915 158.96 87.0735 144.099 101.115 135.078C106.725 131.474 113.17 128.526 116.745 122.898C120.32 117.271 118.751 107.829 112.211 106.531C106.049 113.205 96.0265 116.028 87.2875 113.551C78.548 111.074 71.4975 103.411 69.7535 94.4975C63.953 96.456 58.153 98.415 52.3525 100.374C57.501 96.4065 63.5975 93.6785 69.987 92.4835C70.6 89.8265 71.213 87.17 71.8265 84.513C60.7585 83.799 49.5345 85.6205 39.261 89.798C45.583 85.039 53.627 82.621 61.525 83.1045C69.5585 83.5965 77.725 79.666 82.3515 73.08C79.457 72.0625 76.8555 70.2255 74.928 67.8375C77.8805 66.235 81.456 65.82 84.6965 66.703M145.465 239.978C144.938 240.491 144.371 241.1 144.408 241.834C144.445 242.568 145.547 243.116 145.927 242.487C148.001 239.051 151.608 236.58 155.561 235.888C159.515 235.196 163.746 236.295 166.864 238.822C167.952 239.703 168.923 240.758 170.166 241.402C170.613 241.634 171.379 241.641 171.398 241.137C171.404 240.972 171.309 240.821 171.216 240.684C168.977 237.384 165.629 234.85 161.845 233.593C158.528 232.491 154.684 232.421 151.717 234.27C150.64 234.941 149.721 235.834 148.811 236.72C147.696 237.806 146.58 238.892 145.465 239.978ZM129.378 233.973C125.083 233.405 120.459 234.846 117.599 238.1C117.095 238.674 116.636 239.319 116.463 240.063C116.29 240.807 116.453 241.667 117.029 242.168C119.241 238.731 123.173 236.465 127.255 236.272C131.338 236.08 135.466 237.966 137.992 241.18C138.387 241.682 138.764 242.232 139.324 242.539C139.885 242.846 140.701 242.806 141.042 242.266C141.45 241.62 140.957 240.795 140.454 240.22C137.601 236.961 133.672 234.541 129.378 233.973ZM159.672 229.576C159.606 230.302 160.565 230.754 161.255 230.517C161.944 230.279 162.401 229.644 162.863 229.079C166.702 224.384 174.013 222.969 179.327 225.893C180.024 225.305 180.064 224.175 179.598 223.391C179.131 222.607 178.28 222.126 177.411 221.848C175.528 221.247 173.484 221.452 171.548 221.844C166.963 222.771 162.333 224.944 159.923 228.953C159.806 229.146 159.693 229.351 159.672 229.576ZM141.65 244.811C139.766 244.942 137.922 245.441 136.158 246.116C133.721 247.049 131.321 248.407 129.894 250.593C131.986 251.185 133.992 249.626 135.904 248.588C140.192 246.261 145.754 246.502 149.825 249.19C151.102 250.034 152.743 251.123 153.989 250.233C151.075 246.581 146.311 244.487 141.65 244.811ZM149.39 243.633C150.819 242.888 151.962 241.679 153.379 240.913C155.331 239.857 157.763 239.734 159.811 240.59C160.923 241.054 161.908 241.781 163.004 242.283C164.099 242.784 165.405 243.045 166.496 242.534C166.617 242.477 166.743 242.403 166.794 242.28C166.877 242.079 166.729 241.862 166.586 241.698C164.143 238.91 160.316 237.399 156.627 237.767C152.938 238.135 149.484 240.374 147.641 243.59C148.026 244.097 148.826 243.927 149.39 243.633ZM120.771 243.766C121.537 243.33 122.136 242.658 122.836 242.124C124.236 241.055 126.059 240.562 127.809 240.766C129.759 240.992 131.517 242.024 133.129 243.143C133.601 243.471 134.082 243.814 134.641 243.944C135.201 244.074 135.867 243.933 136.183 243.454C136.496 242.98 136.37 242.319 136.035 241.861C135.7 241.402 135.198 241.101 134.708 240.814C132.715 239.645 130.609 238.476 128.301 238.357C125.417 238.208 122.736 239.711 120.242 241.167C119.23 241.757 118.068 242.652 118.282 243.803C118.975 244.348 120.006 244.201 120.771 243.766ZM133.761 232.586C134.282 233.26 135.301 232.537 135.876 231.909C137.647 229.974 140.199 228.777 142.819 228.651C145.439 228.525 148.094 229.473 150.042 231.229C150.533 231.672 151.051 232.195 151.713 232.213C152.374 232.231 152.97 231.308 152.445 230.905C149.637 228.747 146.37 226.984 142.836 226.751C139.302 226.518 135.494 228.104 133.858 231.245C133.639 231.666 133.471 232.211 133.761 232.586ZM165.004 231.995C165.471 231.798 165.812 231.397 166.169 231.038C168.888 228.303 173.494 227.691 176.832 229.622C177.667 230.105 178.923 230.638 179.408 229.804C179.813 229.109 179.092 228.3 178.404 227.883C173.914 225.16 167.513 226.197 164.113 230.198C163.766 230.606 163.434 231.165 163.672 231.644C163.897 232.098 164.538 232.192 165.004 231.995ZM167.486 232.252C167.293 232.414 167.101 232.594 167.02 232.832C166.793 233.497 167.601 234.119 168.301 234.064C169.001 234.008 169.596 233.557 170.232 233.258C171.781 232.527 173.642 232.701 175.215 233.38C175.837 233.649 176.439 233.996 177.109 234.097C177.779 234.198 178.561 233.976 178.866 233.371C176.202 230.068 170.743 229.532 167.486 232.252ZM125.357 230.984C125.755 231.171 126.297 231.136 126.553 230.779C126.901 230.293 126.528 229.631 126.159 229.162C124.908 227.572 123.563 226.007 121.844 224.94C120.125 223.874 117.96 223.361 116.046 224.014C115.851 224.721 116.731 225.201 117.424 225.443C120.09 226.372 122.511 227.999 124.378 230.117C124.669 230.447 124.959 230.798 125.357 230.984ZM148.921 232.759C145.774 230.752 141.479 230.717 138.299 232.672C137.747 233.011 137.179 233.489 137.136 234.137C137.093 234.784 137.972 235.384 138.408 234.904C140.164 232.968 143.374 232.566 145.553 234.009C146.623 234.718 148.16 234.621 149.133 233.784C149.592 233.736 149.31 233.008 148.921 232.759ZM171.812 243.618C167.341 243.316 163.18 245.947 159.935 249.038C160.171 249.584 160.977 249.439 161.523 249.203C165.219 247.603 168.915 246.004 172.611 244.404C172.889 244.036 172.272 243.649 171.812 243.618ZM129.257 245.609C129.807 245.921 130.346 246.345 130.978 246.345C131.61 246.346 132.237 245.585 131.836 245.096C130.573 243.557 128.589 242.636 126.598 242.667C124.607 242.697 122.652 243.678 121.437 245.255C121.587 245.828 122.289 246.092 122.875 246.007C123.461 245.921 123.977 245.591 124.521 245.355C126.025 244.704 127.832 244.801 129.257 245.609ZM151.43 245.189C151.379 245.629 151.878 245.966 152.321 245.942C152.763 245.918 153.152 245.659 153.54 245.445C155.169 244.548 157.174 244.364 158.939 244.95C160.07 245.326 161.481 245.94 162.297 245.072C162.369 244.576 161.871 244.201 161.429 243.966C159.844 243.123 158.099 242.486 156.303 242.503C154.508 242.519 152.655 243.273 151.63 244.747C151.537 244.881 151.448 245.026 151.43 245.189ZM148.092 225.87C149.941 226.532 151.662 227.545 153.137 228.841C153.745 229.375 154.327 229.967 155.064 230.301C155.802 230.634 156.759 230.643 157.337 230.076C156.059 229.096 155.01 227.821 154.294 226.379C153.909 225.602 152.881 225.46 152.015 225.418C150.749 225.356 149.484 225.294 148.218 225.232C148.084 225.412 148.037 225.653 148.092 225.87ZM131.582 230.315C132.236 229.704 132.718 228.934 133.322 228.275C134.258 227.252 135.492 226.504 136.831 226.147C137.41 225.993 138.17 225.697 138.082 225.105C136.445 224.821 134.576 224.591 133.284 225.637C131.476 227.102 130.041 229.027 129.154 231.18C130.027 231.373 130.929 230.925 131.582 230.315ZM117.025 229.573C118.198 230.338 119.372 231.103 120.546 231.867C121.043 232.191 121.677 232.523 122.192 232.229C122.671 231.957 122.744 231.256 122.494 230.766C122.245 230.275 121.77 229.947 121.313 229.639C120.358 228.996 119.402 228.353 118.447 227.709C117.646 227.17 116.343 226.741 115.908 227.602C115.532 228.344 116.328 229.119 117.025 229.573ZM141.736 238.766C142.185 239.211 142.814 239.694 143.385 239.42C143.645 239.296 143.813 239.039 143.967 238.796C144.476 237.991 144.985 237.188 145.493 236.384C144.161 234.902 141.546 234.862 140.17 236.302C140.064 236.413 139.961 236.54 139.942 236.692C139.912 236.932 140.098 237.14 140.27 237.311C140.759 237.796 141.248 238.281 141.736 238.766ZM121.198 250.265C122.153 250.6 123.279 250.699 124.121 250.138C122.854 248.681 121.368 247.413 119.73 246.391C119.265 246.101 118.741 245.82 118.198 245.897C117.656 245.975 117.176 246.592 117.438 247.073C118.245 248.548 119.611 249.709 121.198 250.265ZM173.564 238.55C174.015 238.005 174.466 237.46 174.917 236.915C175.073 236.727 175.237 236.515 175.227 236.272C175.215 235.963 174.932 235.741 174.662 235.589C173.725 235.062 172.618 234.842 171.55 234.97C171.142 235.019 170.717 235.13 170.43 235.424C170.143 235.719 170.06 236.242 170.349 236.535C171.003 237.198 171.658 237.861 172.313 238.525C172.527 238.741 172.798 238.977 173.096 238.912C173.293 238.869 173.436 238.705 173.564 238.55ZM126.497 226.775C126.901 227.21 127.41 227.657 128.002 227.608C129.272 227.503 129.682 225.31 130.951 225.43C131.292 224.868 130.362 224.419 129.705 224.409C128.005 224.382 126.305 224.355 124.606 224.328C125.16 225.199 125.794 226.018 126.497 226.775ZM136.995 250.668C140.531 250.652 144.067 250.637 147.604 250.621C147.294 249.922 146.464 249.638 145.715 249.483C143.262 248.975 140.689 249.053 138.27 249.708C137.728 249.855 137.11 250.119 136.995 250.668ZM158.829 246.947C157.659 247 156.489 247.053 155.319 247.105C154.941 247.123 154.456 247.232 154.41 247.607C154.389 247.774 154.473 247.935 154.555 248.083C154.864 248.645 155.193 249.229 155.728 249.583C156.263 249.937 157.068 249.972 157.484 249.484C157.803 249.11 157.828 248.526 158.209 248.215C158.454 248.014 158.794 247.974 159.065 247.81C159.336 247.646 159.509 247.22 159.257 247.027C159.139 246.937 158.977 246.94 158.829 246.947ZM128.535 248.904C128.847 248.416 128.552 247.725 128.065 247.412C127.578 247.098 126.969 247.06 126.39 247.031C125.751 247 124.91 247.118 124.795 247.747C124.74 248.047 124.893 248.342 125.041 248.608C125.474 249.391 126.112 250.289 127.003 250.2C127.693 250.132 128.16 249.488 128.535 248.904ZM174.752 241.888C175.277 241.931 175.748 241.575 176.116 241.198C177.24 240.049 177.955 238.509 178.105 236.909C177.734 236.671 177.279 237.039 176.994 237.376C176.037 238.508 175.081 239.639 174.124 240.771C173.784 241.173 174.227 241.844 174.752 241.888ZM116.227 233.873C116.76 234.541 117.789 234.75 118.541 234.344C118.926 234.136 119.251 233.723 119.174 233.292C119.106 232.908 118.757 232.648 118.435 232.428C117.97 232.111 117.505 231.794 117.039 231.477C116.897 231.38 116.734 231.279 116.566 231.314C116.449 231.337 116.356 231.422 116.278 231.512C115.716 232.155 115.693 233.205 116.227 233.873ZM157.546 226.826C158.104 227.295 158.932 226.81 159.487 226.336C160.088 225.822 160.69 225.308 161.292 224.794C160.951 224.469 160.407 224.543 159.946 224.638C158.606 224.915 157.267 225.192 155.927 225.469C156.467 225.921 157.006 226.373 157.546 226.826ZM178.581 220.255C178.918 220.675 179.628 220.585 180.014 220.21C180.401 219.835 180.544 219.28 180.655 218.753C180.681 218.627 180.706 218.49 180.653 218.372C180.518 218.071 180.072 218.162 179.774 218.301C178.971 218.675 178.026 219.565 178.581 220.255Z" fill="#FFFFFA"/>
<path fill-rule="evenodd" clip-rule="evenodd" d="M73.6075 175.32C76.915 158.961 88.224 145.267 102.266 136.246C95.1665 145.979 73.379 161.938 80.382 179.719C91.5755 208.142 135.121 212.612 133.606 212.921C107.851 218.173 71.145 187.501 73.6075 175.32Z" fill="#FFFFFA"/>
<path fill-rule="evenodd" clip-rule="evenodd" d="M155.991 33.357C154.199 33.5745 152.62 35.0095 152.233 36.7725C166.737 28.974 184.256 26.9695 200.146 31.289C200.16 39.303 194.538 47.011 186.903 49.4465L170.351 54.727C174.718 55.2115 179.204 54.571 183.261 52.8845C184.702 55.1555 187.076 56.8145 189.705 57.386L184.617 58.502C185.367 60.7875 186.898 62.809 188.896 64.149C187.201 63.5685 185.315 63.5625 183.616 64.1325L184.755 68.2695C177.253 67.2285 169.236 68.25 162.917 72.426C156.598 76.602 152.355 84.2785 153.494 91.7665C154.826 83.625 160.406 76.3005 167.9 72.853C175.395 69.405 184.587 69.935 191.636 74.2205L186.854 77.762C188.691 78.4925 190.867 78.306 192.552 77.2735C196.232 78.902 195.213 85.6355 191.216 86.102L196.504 86.47C197.42 95.461 191.866 104.733 183.506 108.168C175.146 111.602 164.677 108.913 159.008 101.874C151.971 105.467 152.464 116.359 157.479 122.465C160.98 126.727 165.802 129.497 170.631 132.27C172.72 133.47 174.81 134.67 176.796 135.993C187.343 143.018 195.206 153.974 198.485 166.216C192.758 170.051 187.663 174.829 183.468 180.298C189.674 180.009 195.752 177.478 200.328 173.276L201.305 182.729C196.281 184.276 191.767 187.434 188.591 191.624C193.069 192.08 197.686 191.034 201.53 188.693C200.153 199.57 197.668 210.306 194.126 220.681L182.578 220.587C185.318 213.015 188.093 204.869 186.075 197.074C184.056 189.279 175.003 182.844 167.877 186.594C176.072 179.988 182.278 170.946 185.495 160.923L164.857 187.562L149.02 187.697C148.522 180.235 148.043 172.587 150.164 165.415C152.285 158.244 157.582 151.531 164.879 149.896C165.671 149.718 166.514 149.574 167.368 149.428C170.934 148.817 174.695 148.172 175.742 144.949C163.913 144.261 152.055 151.834 147.704 162.856C144.603 170.71 145.149 179.464 145.743 187.887C134.807 186.309 123.609 186.563 112.756 188.633C110.872 182.211 108.918 175.644 104.965 170.242C101.013 164.841 94.597 160.744 87.937 161.411C98.6625 163.005 103.975 174.923 108.02 184.984C112.064 195.045 119.406 206.538 130.204 205.542C133.279 205.259 134.258 210.309 131.901 212.305C129.544 214.3 126.043 213.92 123.026 213.26C107.486 209.859 92.9775 201.88 81.783 190.578C79.6035 188.377 77.496 185.969 76.4885 183.04C75.246 179.426 75.825 175.435 76.8935 171.766C82.352 153.022 99.1505 140.178 115.115 128.941C123.704 122.895 123.396 107.911 114.566 102.224C108.029 108.163 99.314 112.317 90.535 111.348C81.7565 110.379 73.448 103.191 73.165 94.3635C75.922 94.1205 78.6245 93.274 81.0275 91.901C78.669 91.0625 76.0105 91.0985 73.675 92C73.04 89.621 73.5035 86.9715 74.909 84.95L79.9145 84.415C78.908 83.2775 77.5045 82.498 76.007 82.2455C79.6195 76.2265 88.003 74.579 94.722 76.613C101.44 78.647 106.882 83.4925 112.087 88.202C106.659 76.3005 91.9405 72.4645 79.089 70.0255L84.6965 66.703C81.456 65.82 77.8805 66.235 74.928 67.8375C76.8555 70.2255 79.457 72.0625 82.3515 73.08C77.725 79.666 69.5585 83.5965 61.525 83.1045C53.627 82.621 45.583 85.039 39.261 89.798C49.5345 85.6205 60.7585 83.799 71.8265 84.513L69.987 92.4835C63.5975 93.6785 57.501 96.4065 52.3525 100.374L69.7535 94.4975C71.4975 103.411 78.548 111.074 87.2875 113.551C96.0265 116.028 106.049 113.205 112.211 106.531C118.751 107.829 120.32 117.271 116.745 122.898C113.914 127.355 109.284 130.131 104.694 132.883C103.487 133.606 102.283 134.328 101.115 135.078C87.0735 144.099 76.915 158.96 73.6075 175.319C70.3 191.678 73.8875 209.318 83.322 223.086C67.739 228.983 57.379 246.345 59.5885 262.859C59.639 263.237 59.695 263.618 59.7515 264C60.085 266.259 60.4255 268.564 59.6585 270.686C58.7625 273.167 55.543 275.005 53.4275 273.43C47.3915 268.936 40.3135 265.851 32.913 264.489C28.5564 263.687 22.1626 265.489 23.0908 269.82C23.4002 271.265 24.5374 272.367 25.6413 273.348C37.095 283.528 51.0455 290.88 65.9185 294.571C69.284 295.407 73.0225 296.014 76.0735 294.366C80.4165 292.018 81.1295 286.755 81.846 281.468C82.55 276.271 83.257 271.05 87.4185 268.554C91.1765 266.299 95.807 267.564 100.147 268.749L100.149 268.749C100.728 268.907 101.302 269.064 101.868 269.211C112.189 271.886 122.891 270.865 133.599 269.844C137.826 269.441 142.053 269.037 146.258 268.861C157.924 268.373 169.664 269.667 180.944 272.684C184.872 273.734 188.778 271.774 192.498 269.907C193.051 269.63 193.599 269.355 194.143 269.091C198.348 267.058 204.11 265.986 207.11 269.566C208.297 270.982 208.735 272.795 209.175 274.619V274.62H209.175V274.62V274.621V274.621V274.621H209.176V274.622V274.622V274.623V274.624H209.176V274.624V274.625V274.625V274.625C209.394 275.525 209.612 276.428 209.921 277.286C211.942 282.891 217.999 286.325 223.948 286.658C229.897 286.991 235.706 284.734 240.904 281.823C250.752 276.308 259.176 268.273 265.15 258.696C265.845 257.581 266.533 256.342 266.393 255.035C266.025 251.583 261.061 251.312 257.749 252.352C248.788 255.165 240.551 260.25 234.021 267C230.951 264.201 229.456 259.777 230.201 255.69C248.457 243.066 267.894 230.011 290.033 228.442C293.505 228.196 297.029 228.235 300.549 228.272C308.193 228.355 315.815 228.437 322.824 225.609C335.736 220.399 343.195 202.779 335.105 191.446C328.882 182.727 316.714 180.67 306.044 181.626C288.011 183.241 270.653 191.544 258.079 204.571C254.585 208.19 251.397 212.197 248.215 216.195C241.329 224.848 234.471 233.466 224.602 238.058C217.9 228.79 207.399 222.358 196.097 220.601C204.48 205.134 206.65 186.409 202.027 169.435C197.404 152.46 186.04 137.423 170.972 128.342C170.151 127.847 169.314 127.364 168.476 126.881L168.475 126.88C164.681 124.693 160.849 122.484 158.263 119.001C155.106 114.749 154.793 107.763 159.221 104.857C165.109 112.937 177.465 114.682 186.204 109.824C194.942 104.966 199.918 94.7725 200.094 84.7765L222.698 84.201C215.1 81.6595 206.799 81.253 198.989 83.0405L196.281 75.666L214.216 73.3145C207.599 71.648 200.508 71.9135 194.034 74.0705C192.563 71.1895 190.32 68.707 187.602 66.9525C190.154 67.242 192.804 66.5585 194.898 65.0715L189.013 60.3885C191.451 60.8365 194.097 59.2385 194.835 56.8725L185.416 53.0625L222.595 35.2715C221.011 35.2435 219.425 35.302 217.847 35.446L222.653 32.268C215.316 33.155 208.078 31.0895 200.85 29.0265C193.367 26.8915 185.895 24.759 178.331 25.9065C175.359 26.3575 172.368 27.3025 169.395 28.243C163.258 30.1825 157.194 32.1 151.517 29.6C139.966 24.514 126.419 24.1415 114.605 28.585C113.561 28.978 112.499 29.4075 111.428 29.841C105.53 32.227 99.3155 34.741 93.806 32.025C87.1755 28.7565 79.1345 30.668 72.4865 33.9005C70.1525 35.035 67.8875 36.326 65.6245 37.6155C61.4405 39.9995 57.2635 42.38 52.67 43.764C63.0355 50.1175 74.7745 54.217 86.8415 55.699C88.3235 56.8445 87.806 59.3905 86.3275 60.5405C84.8485 61.69 82.8495 61.836 80.979 61.936C81.4605 65.2685 85.7545 67.379 88.687 65.7245C87.4545 65.9535 87.3625 63.9515 87.8745 62.8075L91.0695 55.6675C93.551 56.5785 96.639 55.1165 97.507 52.62C91.3625 53.3595 84.987 54.079 79.1005 52.1675C73.2145 50.256 67.955 44.923 68.231 38.74C81.3395 31.1455 98.9365 32.174 111.071 41.2435C110.134 38.5095 107.831 36.2815 105.067 35.436C108.258 32.294 112.495 30.232 116.936 29.659C114.298 31.7465 113.088 35.479 114.001 38.7175L125.849 27.821C123.905 31.305 122.817 35.262 122.705 39.25C127.098 36.3785 130.599 32.1605 132.611 27.3125L137.881 28.0525C134.655 30.7785 132.857 35.1105 133.206 39.32C137.222 36.8235 140.335 32.9075 141.862 28.4325C146.811 29.232 151.617 30.9075 155.991 33.357ZM301.571 226.253C298.921 226.165 296.27 226.077 293.634 226.152C274.014 226.709 255.773 236.266 239.585 247.366L239.417 247.48L239.235 247.606L238.915 247.826L238.903 247.834C235.831 249.947 232.729 252.081 229.222 253.327L225.102 241.319C224.881 240.675 224.745 239.79 225.344 239.466C231.643 236.06 237.396 231.643 242.314 226.438C245.591 222.969 248.498 219.159 251.401 215.352C255.513 209.961 259.617 204.578 264.757 200.191C272.965 193.187 283.298 189.178 293.666 186.188C301.339 183.974 309.38 182.238 317.272 183.454C325.165 184.669 332.936 189.38 335.83 196.822C338.129 202.734 337.004 209.707 333.462 214.969C329.92 220.231 324.17 223.811 318.008 225.314C312.649 226.62 307.115 226.436 301.571 226.253ZM75.8195 251.689C76.2345 252.676 76.496 253.993 75.668 254.671C74.601 255.544 73.088 254.418 72.1915 253.371L64.5515 244.443C62.7225 249.197 61.8835 254.331 62.103 259.42C62.147 260.44 62.23 261.476 62.3135 262.514V262.514V262.515V262.516H62.314V262.516V262.517V262.517V262.517V262.518V262.518C62.6335 266.494 62.957 270.523 61.1155 273.97C60.308 275.482 58.934 276.87 57.223 276.981C56.2535 277.044 55.3095 276.69 54.4145 276.311C51.9615 275.274 49.5445 273.998 47.1285 272.724C40.9085 269.443 34.694 266.166 27.8834 266.948C26.9533 267.055 25.7951 267.513 25.8314 268.448C25.8477 268.867 26.121 269.228 26.3867 269.552C36.206 281.544 51.561 287.359 66.4255 291.75C68.8565 292.468 71.4185 293.167 73.894 292.622C76.3695 292.077 78.6675 289.845 78.3685 287.328C77.5775 280.668 79.664 273.715 83.992 268.591C85.7195 266.546 87.904 264.726 90.525 264.181C93.745 263.512 96.892 264.839 99.9915 266.146H99.992C100.788 266.482 101.581 266.816 102.371 267.115C108.429 269.405 115.239 269.655 121.449 267.815C119.021 267.783 117.855 264.872 117.352 262.496C114.092 247.108 112.358 231.396 112.186 215.667C112.167 213.957 110.967 212.445 109.52 211.533C108.295 210.762 106.898 210.332 105.509 209.905C105.258 209.827 105.006 209.751 104.756 209.671C99.6985 208.069 94.933 205.55 90.76 202.273C90.234 201.861 89.7165 201.436 89.198 201.01C87.601 199.697 86.0025 198.383 84.169 197.443C81.741 196.197 78.736 195.688 76.3025 196.924C75.7595 198.217 76.741 199.721 77.997 200.345C78.9485 200.818 80.0145 200.946 81.0775 201.074C81.4185 201.115 81.759 201.156 82.095 201.208C83.6945 201.457 85.2515 201.978 86.6785 202.742C88.177 203.545 89.597 205.665 88.261 206.717C87.713 207.148 86.9455 207.117 86.25 207.066L78.405 206.49C80.3175 211.693 82.7555 216.702 85.6705 221.418C85.932 221.841 86.2815 222.311 86.779 222.316C94.4645 222.385 103.047 223.462 107.917 229.407C108.84 230.534 109.598 232.162 108.806 233.385C104.342 227.995 97.3585 224.784 90.36 224.905C83.3615 225.026 76.493 228.475 72.2175 234.017C75.9915 236.543 78.9915 240.21 80.721 244.409C81.243 245.677 81.147 247.75 79.776 247.722L71.541 237.639C71.173 237.189 70.7305 236.699 70.149 236.681C69.683 236.667 69.272 236.965 68.902 237.25C68.101 237.865 67.2695 238.518 66.8515 239.438C66.4335 240.358 66.589 241.623 67.46 242.134C71.1725 244.315 74.1515 247.72 75.8195 251.689ZM169.704 267.467C174.992 263.056 176.717 255.792 178.138 249.053L183.341 224.361C183.397 224.097 183.461 223.817 183.651 223.626C183.901 223.373 184.294 223.345 184.65 223.335C194.136 223.048 204.235 223.952 211.875 229.581C208.757 231.127 206.032 233.456 204.021 236.296C203.456 237.092 202.985 238.29 203.711 238.942C203.984 239.186 204.363 239.273 204.729 239.299C206.55 239.429 208.213 238.291 209.544 237.041C209.831 236.771 210.113 236.493 210.395 236.214C211.421 235.198 212.452 234.179 213.755 233.582C215.415 232.822 217.721 233.035 218.637 234.615C215.676 236.123 213.236 238.632 211.812 241.634C211.441 242.416 211.134 243.319 211.435 244.13C211.735 244.942 212.917 245.418 213.498 244.776L219.219 238.461C219.495 238.156 219.88 237.821 220.267 237.962C220.476 238.039 220.612 238.236 220.732 238.423C223.763 243.18 224.968 248.72 226.179 254.283C226.887 257.54 227.598 260.805 228.678 263.927C229.543 266.428 231.214 269.238 233.86 269.24C235.323 269.241 236.617 268.341 237.774 267.448C239.012 266.492 240.243 265.49 241.481 264.483C247.298 259.749 253.248 254.907 260.575 254.327C261.73 254.236 263.211 254.491 263.482 255.617C263.64 256.271 263.288 256.93 262.937 257.504C257.491 266.418 249.322 273.446 240.298 278.707C235.678 281.401 230.612 283.714 225.264 283.755C219.916 283.797 214.253 281.062 212.232 276.111C211.82 275.101 211.567 274.035 211.316 272.97L211.315 272.969C211.024 271.737 210.733 270.506 210.195 269.365C208.808 266.423 205.735 264.353 202.488 264.173C199.397 264.002 196.554 265.38 193.717 266.754C192.72 267.237 191.724 267.719 190.719 268.134C184.043 270.887 176.193 270.638 169.704 267.467ZM134.403 214.307C132.412 216.006 129.735 216.684 127.125 216.876C122.423 217.221 117.625 216.12 113.543 213.76L115.227 220.135C115.3 220.409 115.386 220.705 115.614 220.874C115.812 221.021 116.075 221.04 116.321 221.053L140.519 222.324C144.047 222.509 147.58 222.695 151.111 222.593C161.015 222.307 170.846 219.721 179.61 215.097C180.116 214.831 180.631 214.547 180.995 214.106C181.429 213.581 181.6 212.893 181.745 212.227C182.973 206.597 183.185 200.746 182.369 195.042C182.169 193.641 181.889 192.205 181.102 191.029C180.314 189.853 178.897 188.993 177.507 189.258C163.267 191.969 148.731 191.132 134.196 190.294H134.196H134.195H134.195H134.194H134.194H134.193H134.193C128.714 189.978 123.236 189.663 117.774 189.538C116.798 189.515 115.773 189.51 114.916 189.977C114.059 190.444 113.47 191.551 113.91 192.421C116.4 197.349 121.547 200.494 126.883 201.913C127.266 202.015 127.658 202.114 128.055 202.215C131.507 203.093 135.309 204.06 136.562 207.273C137.513 209.711 136.394 212.608 134.403 214.307ZM173.227 256.073C172.251 259.949 170.199 263.97 166.476 265.423C165.174 265.932 163.763 266.083 162.371 266.212C149.463 267.414 136.416 267.124 123.574 265.352C122.809 265.246 122.003 265.118 121.407 264.627C120.681 264.03 120.435 263.041 120.245 262.121C119.662 259.299 119.21 256.449 118.891 253.586C118.835 253.078 118.976 252.355 119.485 252.394C127.702 253.034 135.944 253.369 144.186 253.401C149.872 253.422 155.603 253.294 161.156 252.073C166.709 250.852 172.124 248.464 176.183 244.483C175.029 246.907 174.532 249.555 174.035 252.207V252.207H174.034V252.207V252.208V252.208H174.034V252.209V252.21V252.21H174.033V252.211C173.791 253.506 173.548 254.801 173.227 256.073ZM145.465 239.978C144.938 240.491 144.371 241.1 144.408 241.834C144.445 242.568 145.547 243.116 145.927 242.487C148.001 239.051 151.608 236.58 155.561 235.888C159.515 235.196 163.746 236.295 166.864 238.822C167.188 239.084 167.502 239.362 167.815 239.64C168.554 240.295 169.293 240.95 170.166 241.402C170.613 241.634 171.379 241.641 171.398 241.137C171.404 240.972 171.309 240.821 171.216 240.684C168.977 237.384 165.629 234.85 161.845 233.593C158.528 232.491 154.684 232.421 151.717 234.27C150.64 234.941 149.721 235.834 148.811 236.72L145.465 239.978ZM117.599 238.1C120.459 234.846 125.083 233.405 129.378 233.973C133.672 234.541 137.601 236.961 140.454 240.22C140.957 240.795 141.45 241.62 141.042 242.266C140.701 242.806 139.885 242.846 139.324 242.539C138.835 242.271 138.486 241.819 138.143 241.374L138.141 241.371C138.111 241.332 138.08 241.293 138.05 241.254C138.031 241.229 138.011 241.205 137.992 241.18C135.466 237.966 131.338 236.08 127.255 236.272C123.173 236.465 119.241 238.731 117.029 242.168C116.453 241.667 116.29 240.807 116.463 240.063C116.636 239.319 117.095 238.674 117.599 238.1ZM159.672 229.576C159.606 230.302 160.565 230.754 161.255 230.517C161.875 230.303 162.308 229.766 162.724 229.25C162.771 229.192 162.817 229.136 162.863 229.079C166.702 224.384 174.013 222.969 179.327 225.893C180.024 225.305 180.064 224.175 179.598 223.391C179.131 222.607 178.28 222.126 177.411 221.848C175.528 221.247 173.484 221.452 171.548 221.844C166.963 222.771 162.333 224.944 159.923 228.953C159.806 229.146 159.693 229.351 159.672 229.576ZM136.158 246.116C137.922 245.441 139.766 244.942 141.65 244.811C146.311 244.487 151.075 246.581 153.989 250.233C152.748 251.121 151.113 250.04 149.837 249.198L149.825 249.19C145.754 246.502 140.192 246.261 135.904 248.588C135.569 248.77 135.232 248.967 134.891 249.167C133.287 250.106 131.62 251.082 129.894 250.593C131.321 248.407 133.721 247.049 136.158 246.116ZM149.39 243.633C150.121 243.252 150.777 242.75 151.433 242.247C152.06 241.767 152.687 241.287 153.379 240.913C155.331 239.857 157.763 239.734 159.811 240.59C160.409 240.839 160.969 241.165 161.53 241.49L161.531 241.491C162.014 241.771 162.497 242.051 163.004 242.283C164.099 242.784 165.405 243.045 166.496 242.534C166.617 242.477 166.743 242.403 166.794 242.28C166.877 242.079 166.729 241.862 166.586 241.698C164.143 238.91 160.316 237.399 156.627 237.767C152.938 238.135 149.484 240.374 147.641 243.59C148.026 244.097 148.826 243.927 149.39 243.633ZM122.084 242.757C121.668 243.125 121.252 243.492 120.771 243.766C120.006 244.201 118.975 244.348 118.282 243.803C118.068 242.652 119.23 241.757 120.242 241.167C122.736 239.711 125.417 238.208 128.301 238.357C130.609 238.476 132.715 239.645 134.708 240.814C135.198 241.101 135.7 241.402 136.035 241.861C136.37 242.319 136.496 242.98 136.183 243.454C135.867 243.933 135.201 244.074 134.641 243.944C134.103 243.819 133.637 243.496 133.182 243.18L133.129 243.143C131.517 242.024 129.759 240.992 127.809 240.766C126.059 240.562 124.236 241.055 122.836 242.124C122.577 242.321 122.333 242.538 122.088 242.754L122.088 242.754L122.087 242.754H122.087V242.755H122.086V242.755H122.086L122.085 242.756L122.085 242.757H122.084V242.757H122.084ZM133.761 232.586C134.282 233.26 135.301 232.537 135.876 231.909C137.647 229.974 140.199 228.777 142.819 228.651C145.439 228.525 148.094 229.473 150.042 231.229C150.082 231.265 150.121 231.301 150.161 231.337C150.618 231.753 151.105 232.197 151.713 232.213C152.374 232.231 152.97 231.308 152.445 230.905C149.637 228.747 146.37 226.984 142.836 226.751C139.302 226.518 135.494 228.104 133.858 231.245C133.639 231.666 133.471 232.211 133.761 232.586ZM166.011 231.199C165.708 231.511 165.402 231.827 165.004 231.995C164.538 232.192 163.897 232.098 163.672 231.644C163.434 231.165 163.766 230.606 164.113 230.198C167.513 226.197 173.914 225.16 178.404 227.883C179.092 228.3 179.813 229.109 179.408 229.804C178.923 230.638 177.667 230.105 176.832 229.622C173.494 227.691 168.888 228.303 166.169 231.038C166.116 231.091 166.064 231.145 166.011 231.199ZM167.486 232.252C167.293 232.414 167.101 232.594 167.02 232.832C166.793 233.497 167.601 234.119 168.301 234.064C168.808 234.023 169.26 233.776 169.711 233.53C169.884 233.435 170.056 233.341 170.232 233.258C171.781 232.527 173.642 232.701 175.215 233.38C175.261 233.4 175.308 233.422 175.354 233.443C175.456 233.488 175.558 233.535 175.66 233.582C176.129 233.801 176.6 234.02 177.109 234.097C177.779 234.198 178.561 233.976 178.866 233.371C176.202 230.068 170.743 229.532 167.486 232.252ZM126.553 230.779C126.297 231.136 125.755 231.171 125.357 230.984C124.987 230.811 124.71 230.496 124.44 230.188L124.378 230.117C122.511 227.999 120.09 226.372 117.424 225.443C116.731 225.201 115.851 224.721 116.046 224.014C117.96 223.361 120.125 223.874 121.844 224.94C123.563 226.007 124.908 227.572 126.159 229.162C126.528 229.631 126.901 230.293 126.553 230.779ZM148.921 232.759C145.774 230.752 141.479 230.717 138.299 232.672C137.747 233.011 137.179 233.489 137.136 234.137C137.093 234.784 137.972 235.384 138.408 234.904C140.164 232.968 143.374 232.566 145.553 234.009C146.623 234.718 148.16 234.621 149.133 233.784C149.592 233.736 149.31 233.008 148.921 232.759ZM159.935 249.038C163.18 245.947 167.341 243.316 171.812 243.618C172.272 243.649 172.889 244.036 172.611 244.404L161.523 249.203C160.977 249.439 160.171 249.584 159.935 249.038ZM129.257 245.609C129.366 245.671 129.475 245.737 129.584 245.804C130.025 246.072 130.471 246.345 130.978 246.345C131.61 246.346 132.237 245.585 131.836 245.096C130.573 243.557 128.589 242.636 126.598 242.667C124.607 242.697 122.652 243.678 121.437 245.255C121.587 245.828 122.289 246.092 122.875 246.007C123.297 245.945 123.684 245.757 124.07 245.568C124.22 245.495 124.369 245.421 124.521 245.355C126.025 244.704 127.832 244.801 129.257 245.609ZM152.321 245.942C151.878 245.966 151.379 245.629 151.43 245.189C151.448 245.026 151.537 244.881 151.63 244.747C152.655 243.273 154.508 242.519 156.303 242.503C158.099 242.486 159.844 243.123 161.429 243.966C161.871 244.201 162.369 244.576 162.297 245.072C161.563 245.853 160.346 245.433 159.286 245.068C159.168 245.027 159.052 244.988 158.939 244.95C157.174 244.364 155.169 244.548 153.54 245.445C153.484 245.476 153.428 245.508 153.371 245.54C153.038 245.729 152.699 245.921 152.321 245.942ZM148.092 225.87C149.941 226.532 151.662 227.545 153.137 228.841C153.239 228.931 153.341 229.023 153.443 229.115L153.443 229.116H153.444V229.116C153.946 229.568 154.452 230.024 155.064 230.301C155.802 230.634 156.759 230.643 157.337 230.076C156.059 229.096 155.01 227.821 154.294 226.379C153.909 225.602 152.881 225.46 152.015 225.418L148.218 225.232C148.084 225.412 148.037 225.653 148.092 225.87ZM132.617 229.128C132.291 229.542 131.966 229.956 131.582 230.315C130.929 230.925 130.027 231.373 129.154 231.18C130.041 229.027 131.476 227.102 133.284 225.637C134.576 224.591 136.445 224.821 138.082 225.105C138.17 225.697 137.41 225.993 136.831 226.147C135.492 226.504 134.258 227.252 133.322 228.275C133.073 228.547 132.845 228.837 132.617 229.128ZM117.025 229.573L120.546 231.867C121.043 232.191 121.677 232.523 122.192 232.229C122.671 231.957 122.744 231.256 122.494 230.766C122.245 230.275 121.77 229.947 121.313 229.639L118.447 227.709C117.646 227.17 116.343 226.741 115.908 227.602C115.532 228.344 116.328 229.119 117.025 229.573ZM143.385 239.42C142.814 239.694 142.185 239.211 141.736 238.766L140.27 237.311C140.098 237.14 139.912 236.932 139.942 236.692C139.961 236.54 140.064 236.413 140.17 236.302C141.546 234.862 144.161 234.902 145.493 236.384L143.967 238.796C143.813 239.039 143.645 239.296 143.385 239.42ZM121.198 250.265C122.153 250.6 123.279 250.699 124.121 250.138C122.854 248.681 121.368 247.413 119.73 246.391C119.265 246.101 118.741 245.82 118.198 245.897C117.656 245.975 117.176 246.592 117.438 247.073C118.245 248.548 119.611 249.709 121.198 250.265ZM174.917 236.915L173.564 238.55C173.436 238.705 173.293 238.869 173.096 238.912C172.798 238.977 172.527 238.741 172.313 238.525L170.349 236.535C170.06 236.242 170.143 235.719 170.43 235.424C170.717 235.13 171.142 235.019 171.55 234.97C172.618 234.842 173.725 235.062 174.662 235.589C174.932 235.741 175.215 235.963 175.227 236.272C175.237 236.515 175.073 236.727 174.917 236.915ZM126.497 226.775C126.901 227.21 127.41 227.657 128.002 227.608C128.616 227.557 129.029 227.019 129.435 226.49C129.869 225.924 130.295 225.368 130.951 225.43C131.292 224.868 130.362 224.419 129.705 224.409L124.606 224.328C125.16 225.199 125.794 226.018 126.497 226.775ZM147.604 250.621L136.995 250.668C137.11 250.119 137.728 249.855 138.27 249.708C140.689 249.053 143.262 248.975 145.715 249.483C146.464 249.638 147.294 249.922 147.604 250.621ZM158.829 246.947L155.319 247.105C154.941 247.123 154.456 247.232 154.41 247.607C154.389 247.774 154.473 247.935 154.555 248.083C154.864 248.645 155.193 249.229 155.728 249.583C156.263 249.937 157.068 249.972 157.484 249.484C157.627 249.316 157.711 249.106 157.795 248.897C157.897 248.641 157.999 248.386 158.209 248.215C158.348 248.101 158.517 248.039 158.687 247.977C158.817 247.929 158.947 247.881 159.065 247.81C159.336 247.646 159.509 247.22 159.257 247.027C159.139 246.937 158.977 246.94 158.829 246.947ZM128.065 247.412C128.552 247.725 128.847 248.416 128.535 248.904C128.16 249.488 127.693 250.132 127.003 250.2C126.112 250.289 125.474 249.391 125.041 248.608C124.893 248.342 124.74 248.047 124.795 247.747C124.91 247.118 125.751 247 126.39 247.031C126.969 247.06 127.578 247.098 128.065 247.412ZM174.752 241.888C175.277 241.931 175.748 241.575 176.116 241.198C177.24 240.049 177.955 238.509 178.105 236.909C177.734 236.671 177.279 237.039 176.994 237.376L174.124 240.771C173.784 241.173 174.227 241.844 174.752 241.888ZM118.541 234.344C117.789 234.75 116.76 234.541 116.227 233.873C115.693 233.205 115.716 232.155 116.278 231.512C116.356 231.422 116.449 231.337 116.566 231.314C116.734 231.279 116.897 231.38 117.039 231.477L118.435 232.428C118.757 232.648 119.106 232.908 119.174 233.292C119.251 233.723 118.926 234.136 118.541 234.344ZM157.546 226.826C158.104 227.295 158.932 226.81 159.487 226.336L161.292 224.794C160.951 224.469 160.407 224.543 159.946 224.638L155.927 225.469L157.546 226.826ZM76.3055 191.482C75.895 191.117 75.79 190.52 75.778 189.971C75.764 189.351 75.8365 188.73 75.993 188.13L78.6565 191.598C78.815 191.805 78.9455 192.161 78.711 192.275C78.378 192.051 77.9685 191.988 77.5615 191.925C77.1015 191.854 76.6445 191.783 76.3055 191.482ZM178.581 220.255C178.918 220.675 179.628 220.585 180.014 220.21C180.401 219.835 180.544 219.28 180.655 218.753C180.681 218.627 180.706 218.49 180.653 218.372C180.518 218.071 180.072 218.162 179.774 218.301C178.971 218.675 178.026 219.565 178.581 220.255ZM148.439 66.947C148.765 66.1325 149.524 65.583 150.271 65.124C152.526 63.7385 155.031 62.7605 157.628 62.2505C158.249 62.1285 158.989 62.069 159.421 62.5325C159.906 63.054 159.663 63.9565 159.125 64.4225C158.645 64.838 158.013 65.0085 157.396 65.175C157.32 65.1955 157.244 65.216 157.17 65.2365C155.093 65.8115 153.139 66.827 151.475 68.1965C150.835 68.723 150.076 69.343 149.278 69.121C148.433 68.886 148.113 67.761 148.439 66.947ZM101.725 67.137C101.123 66.8105 100.715 65.996 101.091 65.422C101.309 65.0885 101.716 64.9365 102.102 64.838C105.233 64.0435 108.475 65.4465 111.307 67.0005C111.945 67.35 112.601 67.731 113.003 68.337C113.405 68.9435 113.463 69.8415 112.939 70.345C112.061 71.1885 110.67 70.321 109.679 69.614C107.944 68.3765 105.859 67.6345 103.732 67.498C103.637 67.492 103.542 67.487 103.446 67.482V67.4815C102.85 67.45 102.245 67.418 101.725 67.137ZM134.549 112.028L132.489 106.154C130.656 107.477 129.286 109.429 128.664 111.602C128.101 111.145 128.08 110.371 128.06 109.611C128.054 109.384 128.048 109.158 128.027 108.942C127.906 107.662 127.101 106.465 125.961 105.87C124.821 105.275 123.38 105.298 122.26 105.93C122.557 106.58 123.257 106.787 123.978 106.999C124.457 107.14 124.944 107.285 125.329 107.562C126.142 108.15 126.374 109.257 126.387 110.26C126.39 110.511 126.384 110.765 126.377 111.018V111.018C126.358 111.776 126.339 112.535 126.575 113.248C126.652 113.479 126.76 113.708 126.946 113.863C127.475 114.303 128.275 113.937 128.81 113.506C130.018 112.531 130.969 111.24 131.539 109.796C132.042 110.299 132.228 111.005 132.413 111.705C132.467 111.911 132.521 112.116 132.583 112.315C132.855 113.194 133.508 114.133 134.427 114.09C135.039 114.062 135.533 113.601 135.966 113.167L138.458 110.678C138.758 110.378 139.084 109.997 138.987 109.583C138.895 109.187 138.424 108.974 138.021 109.031C137.617 109.088 137.272 109.343 136.957 109.6C136.072 110.322 135.263 111.137 134.549 112.028ZM128.857 88.466C128.99 87.3895 129.063 86.1355 128.272 85.393C126.796 84.0075 125.504 82.4275 124.439 80.706C123.974 79.9555 123.538 79.0785 123.759 78.224C124.094 76.9335 125.663 76.4665 126.986 76.3055C129.104 76.0475 131.247 76.004 133.373 76.175C134.287 76.2485 135.256 76.386 135.955 76.9785C136.654 77.571 136.906 78.773 136.231 79.393C132.923 82.434 130.986 86.9135 131.036 91.407C132.263 92.203 133.51 93.009 134.907 93.4395C136.305 93.8705 137.897 93.8845 139.158 93.143C139.689 92.831 140.134 92.404 140.58 91.976C140.888 91.6805 141.197 91.3845 141.534 91.1255C142.36 90.492 143.543 90.0995 144.428 90.6475L141.06 93.748C139.718 94.984 138.052 96.313 136.275 95.897C135.687 95.759 135.171 95.441 134.652 95.1215C134.344 94.9315 134.035 94.741 133.709 94.588C131.97 93.7695 129.929 94.0755 128.049 94.479C127.936 94.503 127.823 94.5275 127.709 94.5525L127.705 94.553C125.931 94.9375 124.096 95.3355 122.355 94.8575C120.501 94.349 118.875 92.422 119.455 90.5895C120.622 92.2975 122.654 93.38 124.723 93.396C125.517 93.402 126.336 93.25 126.994 92.805C128.341 91.8945 128.658 90.08 128.857 88.466Z" fill="#000103"/>
</svg>
